# MagicaVoxel @ Ephtracy

# group
o 

# material
mtllib grass06.mtl
usemtl palette

# normals
vn -1 0 0
vn 1 0 0
vn 0 0 1
vn 0 0 -1
vn 0 -1 0
vn 0 1 0

# texcoords
vt 0.00195313 0.5
vt 0.00585938 0.5
vt 0.0644531 0.5

# verts
v 0 2 0
v 0 2 -0.8
v 0 2.8 0
v 0 2.8 -0.8
v 0.8 2 0
v 0.8 2 -0.8
v 0.8 2.8 0
v 0.8 2.8 -0.8
v 0 2 0
v 0 2.8 0
v 0.2 2.3 0
v 0.2 2.5 0
v 0.3 2 0
v 0.3 2.1 0
v 0.3 2.2 0
v 0.3 2.3 0
v 0.3 2.5 0
v 0.3 2.6 0
v 0.3 2.7 0
v 0.3 2.8 0
v 0.4 2.1 0
v 0.4 2.2 0
v 0.4 2.3 0
v 0.4 2.6 0
v 0.4 2.7 0
v 0.5 2 0
v 0.5 2.1 0
v 0.5 2.3 0
v 0.5 2.4 0
v 0.5 2.5 0
v 0.5 2.7 0
v 0.6 2.4 0
v 0.6 2.5 0
v 0.6 2.7 0
v 0.6 2.8 0
v 0.8 2 0
v 0.8 2.8 0
v 0 2 -0.8
v 0 2.8 -0.8
v 0.2 2.3 -0.8
v 0.2 2.5 -0.8
v 0.3 2 -0.8
v 0.3 2.1 -0.8
v 0.3 2.2 -0.8
v 0.3 2.3 -0.8
v 0.3 2.5 -0.8
v 0.3 2.6 -0.8
v 0.3 2.7 -0.8
v 0.3 2.8 -0.8
v 0.4 2.1 -0.8
v 0.4 2.2 -0.8
v 0.4 2.3 -0.8
v 0.4 2.6 -0.8
v 0.4 2.7 -0.8
v 0.5 2 -0.8
v 0.5 2.1 -0.8
v 0.5 2.3 -0.8
v 0.5 2.4 -0.8
v 0.5 2.5 -0.8
v 0.5 2.7 -0.8
v 0.6 2.4 -0.8
v 0.6 2.5 -0.8
v 0.6 2.7 -0.8
v 0.6 2.8 -0.8
v 0.8 2 -0.8
v 0.8 2.8 -0.8
v 0 2 0
v 0.3 2 0
v 0.5 2 0
v 0.8 2 0
v 0 2 -0.8
v 0.3 2 -0.8
v 0.5 2 -0.8
v 0.8 2 -0.8
v 0 2.8 0
v 0.3 2.8 0
v 0.6 2.8 0
v 0.8 2.8 0
v 0 2.8 -0.8
v 0.3 2.8 -0.8
v 0.6 2.8 -0.8
v 0.8 2.8 -0.8

# faces
f 3/3/1 2/3/1 1/3/1
f 4/3/1 2/3/1 3/3/1
f 5/1/2 6/1/2 7/1/2
f 7/1/2 6/1/2 8/1/2
f 11/3/3 10/3/3 9/3/3
f 12/3/3 10/3/3 11/3/3
f 13/3/3 11/3/3 9/3/3
f 14/3/3 11/3/3 13/3/3
f 15/3/3 11/3/3 14/3/3
f 16/2/3 12/2/3 11/2/3
f 16/3/3 11/3/3 15/3/3
f 17/3/3 10/3/3 12/3/3
f 17/2/3 12/2/3 16/2/3
f 18/3/3 10/3/3 17/3/3
f 19/3/3 10/3/3 18/3/3
f 20/3/3 10/3/3 19/3/3
f 21/3/3 15/3/3 14/3/3
f 21/2/3 14/2/3 13/2/3
f 22/2/3 16/2/3 15/2/3
f 22/3/3 15/3/3 21/3/3
f 22/2/3 17/2/3 16/2/3
f 22/2/3 18/2/3 17/2/3
f 23/2/3 18/2/3 22/2/3
f 24/3/3 19/3/3 18/3/3
f 24/2/3 18/2/3 23/2/3
f 25/2/3 20/2/3 19/2/3
f 25/3/3 19/3/3 24/3/3
f 26/2/3 21/2/3 13/2/3
f 27/1/3 23/1/3 22/1/3
f 27/2/3 21/2/3 26/2/3
f 27/1/3 22/1/3 21/1/3
f 28/2/3 24/2/3 23/2/3
f 28/1/3 23/1/3 27/1/3
f 28/2/3 25/2/3 24/2/3
f 29/2/3 25/2/3 28/2/3
f 30/2/3 25/2/3 29/2/3
f 31/2/3 20/2/3 25/2/3
f 31/2/3 25/2/3 30/2/3
f 32/2/3 30/2/3 29/2/3
f 32/1/3 27/1/3 26/1/3
f 32/1/3 28/1/3 27/1/3
f 32/1/3 29/1/3 28/1/3
f 33/1/3 31/1/3 30/1/3
f 33/2/3 30/2/3 32/2/3
f 34/2/3 20/2/3 31/2/3
f 34/1/3 31/1/3 33/1/3
f 35/2/3 20/2/3 34/2/3
f 36/1/3 33/1/3 32/1/3
f 36/1/3 32/1/3 26/1/3
f 36/1/3 35/1/3 34/1/3
f 36/1/3 34/1/3 33/1/3
f 37/1/3 35/1/3 36/1/3
f 38/3/4 39/3/4 40/3/4
f 40/3/4 39/3/4 41/3/4
f 38/3/4 40/3/4 42/3/4
f 42/3/4 40/3/4 43/3/4
f 43/3/4 40/3/4 44/3/4
f 40/2/4 41/2/4 45/2/4
f 44/3/4 40/3/4 45/3/4
f 41/3/4 39/3/4 46/3/4
f 45/2/4 41/2/4 46/2/4
f 46/3/4 39/3/4 47/3/4
f 47/3/4 39/3/4 48/3/4
f 48/3/4 39/3/4 49/3/4
f 43/3/4 44/3/4 50/3/4
f 42/2/4 43/2/4 50/2/4
f 44/2/4 45/2/4 51/2/4
f 50/3/4 44/3/4 51/3/4
f 45/2/4 46/2/4 51/2/4
f 46/2/4 47/2/4 51/2/4
f 51/2/4 47/2/4 52/2/4
f 47/3/4 48/3/4 53/3/4
f 52/2/4 47/2/4 53/2/4
f 48/2/4 49/2/4 54/2/4
f 53/3/4 48/3/4 54/3/4
f 42/2/4 50/2/4 55/2/4
f 51/1/4 52/1/4 56/1/4
f 55/2/4 50/2/4 56/2/4
f 50/1/4 51/1/4 56/1/4
f 52/2/4 53/2/4 57/2/4
f 56/1/4 52/1/4 57/1/4
f 53/2/4 54/2/4 57/2/4
f 57/2/4 54/2/4 58/2/4
f 58/2/4 54/2/4 59/2/4
f 54/2/4 49/2/4 60/2/4
f 59/2/4 54/2/4 60/2/4
f 58/2/4 59/2/4 61/2/4
f 55/1/4 56/1/4 61/1/4
f 56/1/4 57/1/4 61/1/4
f 57/1/4 58/1/4 61/1/4
f 59/1/4 60/1/4 62/1/4
f 61/2/4 59/2/4 62/2/4
f 60/2/4 49/2/4 63/2/4
f 62/1/4 60/1/4 63/1/4
f 63/2/4 49/2/4 64/2/4
f 61/1/4 62/1/4 65/1/4
f 55/1/4 61/1/4 65/1/4
f 63/1/4 64/1/4 65/1/4
f 62/1/4 63/1/4 65/1/4
f 65/1/4 64/1/4 66/1/4
f 71/3/5 68/3/5 67/3/5
f 72/2/5 69/2/5 68/2/5
f 72/3/5 68/3/5 71/3/5
f 73/1/5 70/1/5 69/1/5
f 73/2/5 69/2/5 72/2/5
f 74/1/5 70/1/5 73/1/5
f 75/3/6 76/3/6 79/3/6
f 76/2/6 77/2/6 80/2/6
f 79/3/6 76/3/6 80/3/6
f 77/1/6 78/1/6 81/1/6
f 80/2/6 77/2/6 81/2/6
f 81/1/6 78/1/6 82/1/6
