# MagicaVoxel @ Ephtracy

# group
o 

# material
mtllib grass07.mtl
usemtl palette

# normals
vn -1 0 0
vn 1 0 0
vn 0 0 1
vn 0 0 -1
vn 0 -1 0
vn 0 1 0

# texcoords
vt 0.00195313 0.5
vt 0.00585938 0.5
vt 0.0644531 0.5

# verts
v 0 2 0
v 0 2 -0.8
v 0 2.1 0
v 0 2.1 -0.8
v 0 2.8 0
v 0 2.8 -0.8
v 0.8 2 0
v 0.8 2 -0.8
v 0.8 2.2 0
v 0.8 2.2 -0.8
v 0.8 2.6 0
v 0.8 2.6 -0.8
v 0.8 2.8 0
v 0.8 2.8 -0.8
v 0 2 0
v 0 2.1 0
v 0 2.8 0
v 0.1 2 0
v 0.1 2.1 0
v 0.3 2.7 0
v 0.3 2.8 0
v 0.4 2.4 0
v 0.4 2.7 0
v 0.5 2.3 0
v 0.5 2.4 0
v 0.5 2.5 0
v 0.5 2.6 0
v 0.6 2.5 0
v 0.6 2.6 0
v 0.6 2.8 0
v 0.7 2.2 0
v 0.7 2.3 0
v 0.8 2 0
v 0.8 2.2 0
v 0.8 2.6 0
v 0.8 2.8 0
v 0 2 -0.8
v 0 2.1 -0.8
v 0 2.8 -0.8
v 0.1 2 -0.8
v 0.1 2.1 -0.8
v 0.3 2.7 -0.8
v 0.3 2.8 -0.8
v 0.4 2.4 -0.8
v 0.4 2.7 -0.8
v 0.5 2.3 -0.8
v 0.5 2.4 -0.8
v 0.5 2.5 -0.8
v 0.5 2.6 -0.8
v 0.6 2.5 -0.8
v 0.6 2.6 -0.8
v 0.6 2.8 -0.8
v 0.7 2.2 -0.8
v 0.7 2.3 -0.8
v 0.8 2 -0.8
v 0.8 2.2 -0.8
v 0.8 2.6 -0.8
v 0.8 2.8 -0.8
v 0 2 0
v 0.1 2 0
v 0.8 2 0
v 0 2 -0.8
v 0.1 2 -0.8
v 0.8 2 -0.8
v 0 2.8 0
v 0.3 2.8 0
v 0.6 2.8 0
v 0.8 2.8 0
v 0 2.8 -0.8
v 0.3 2.8 -0.8
v 0.6 2.8 -0.8
v 0.8 2.8 -0.8

# faces
f 3/2/1 2/2/1 1/2/1
f 4/2/1 2/2/1 3/2/1
f 5/1/1 4/1/1 3/1/1
f 6/1/1 4/1/1 5/1/1
f 7/1/2 8/1/2 9/1/2
f 9/1/2 8/1/2 10/1/2
f 9/2/2 10/2/2 11/2/2
f 11/2/2 10/2/2 12/2/2
f 11/3/2 12/3/2 13/3/2
f 13/3/2 12/3/2 14/3/2
f 18/2/3 16/2/3 15/2/3
f 19/1/3 17/1/3 16/1/3
f 19/2/3 16/2/3 18/2/3
f 20/1/3 19/1/3 18/1/3
f 20/1/3 17/1/3 19/1/3
f 21/1/3 17/1/3 20/1/3
f 22/1/3 20/1/3 18/1/3
f 23/2/3 21/2/3 20/2/3
f 23/1/3 20/1/3 22/1/3
f 24/1/3 22/1/3 18/1/3
f 25/2/3 23/2/3 22/2/3
f 25/1/3 22/1/3 24/1/3
f 26/2/3 23/2/3 25/2/3
f 27/2/3 23/2/3 26/2/3
f 28/2/3 25/2/3 24/2/3
f 28/2/3 26/2/3 25/2/3
f 28/3/3 27/3/3 26/3/3
f 29/2/3 23/2/3 27/2/3
f 29/3/3 27/3/3 28/3/3
f 30/2/3 21/2/3 23/2/3
f 30/2/3 23/2/3 29/2/3
f 31/1/3 24/1/3 18/1/3
f 32/2/3 29/2/3 28/2/3
f 32/1/3 24/1/3 31/1/3
f 32/2/3 28/2/3 24/2/3
f 33/1/3 31/1/3 18/1/3
f 34/2/3 32/2/3 31/2/3
f 34/1/3 31/1/3 33/1/3
f 35/2/3 29/2/3 32/2/3
f 35/2/3 32/2/3 34/2/3
f 35/3/3 30/3/3 29/3/3
f 36/3/3 30/3/3 35/3/3
f 37/2/4 38/2/4 40/2/4
f 38/1/4 39/1/4 41/1/4
f 40/2/4 38/2/4 41/2/4
f 40/1/4 41/1/4 42/1/4
f 41/1/4 39/1/4 42/1/4
f 42/1/4 39/1/4 43/1/4
f 40/1/4 42/1/4 44/1/4
f 42/2/4 43/2/4 45/2/4
f 44/1/4 42/1/4 45/1/4
f 40/1/4 44/1/4 46/1/4
f 44/2/4 45/2/4 47/2/4
f 46/1/4 44/1/4 47/1/4
f 47/2/4 45/2/4 48/2/4
f 48/2/4 45/2/4 49/2/4
f 46/2/4 47/2/4 50/2/4
f 47/2/4 48/2/4 50/2/4
f 48/3/4 49/3/4 50/3/4
f 49/2/4 45/2/4 51/2/4
f 50/3/4 49/3/4 51/3/4
f 45/2/4 43/2/4 52/2/4
f 51/2/4 45/2/4 52/2/4
f 40/1/4 46/1/4 53/1/4
f 50/2/4 51/2/4 54/2/4
f 53/1/4 46/1/4 54/1/4
f 46/2/4 50/2/4 54/2/4
f 40/1/4 53/1/4 55/1/4
f 53/2/4 54/2/4 56/2/4
f 55/1/4 53/1/4 56/1/4
f 54/2/4 51/2/4 57/2/4
f 56/2/4 54/2/4 57/2/4
f 51/3/4 52/3/4 57/3/4
f 57/3/4 52/3/4 58/3/4
f 62/2/5 60/2/5 59/2/5
f 63/1/5 61/1/5 60/1/5
f 63/2/5 60/2/5 62/2/5
f 64/1/5 61/1/5 63/1/5
f 65/1/6 66/1/6 69/1/6
f 66/2/6 67/2/6 70/2/6
f 69/1/6 66/1/6 70/1/6
f 67/3/6 68/3/6 71/3/6
f 70/2/6 67/2/6 71/2/6
f 71/3/6 68/3/6 72/3/6
