# MagicaVoxel @ Ephtracy

# group
o 

# material
mtllib grass08.mtl
usemtl palette

# normals
vn -1 0 0
vn 1 0 0
vn 0 0 1
vn 0 0 -1
vn 0 -1 0
vn 0 1 0

# texcoords
vt 0.00195313 0.5
vt 0.00585938 0.5
vt 0.0644531 0.5

# verts
v 0 2 0
v 0 2 -0.8
v 0 2.3 0
v 0 2.3 -0.1
v 0 2.3 -0.7
v 0 2.3 -0.8
v 0 2.5 0
v 0 2.5 -0.1
v 0 2.5 -0.7
v 0 2.5 -0.8
v 0 2.8 0
v 0 2.8 -0.8
v 0.8 2 0
v 0.8 2 -0.8
v 0.8 2.2 0
v 0.8 2.2 -0.8
v 0.8 2.5 0
v 0.8 2.5 -0.8
v 0.8 2.8 0
v 0.8 2.8 -0.8
v 0 2 0
v 0 2.3 0
v 0 2.5 0
v 0 2.8 0
v 0.1 2.3 0
v 0.1 2.4 0
v 0.1 2.5 0
v 0.2 2.4 0
v 0.2 2.5 0
v 0.3 2.3 0
v 0.3 2.4 0
v 0.3 2.5 0
v 0.3 2.6 0
v 0.4 2.2 0
v 0.4 2.3 0
v 0.5 2.2 0
v 0.5 2.3 0
v 0.5 2.5 0
v 0.5 2.6 0
v 0.6 2.4 0
v 0.6 2.5 0
v 0.7 2.2 0
v 0.7 2.3 0
v 0.7 2.4 0
v 0.7 2.5 0
v 0.8 2 0
v 0.8 2.2 0
v 0.8 2.5 0
v 0.8 2.8 0
v 0 2 -0.8
v 0 2.3 -0.8
v 0 2.5 -0.8
v 0 2.8 -0.8
v 0.1 2.3 -0.8
v 0.1 2.4 -0.8
v 0.1 2.5 -0.8
v 0.2 2.4 -0.8
v 0.2 2.5 -0.8
v 0.3 2.3 -0.8
v 0.3 2.4 -0.8
v 0.3 2.5 -0.8
v 0.3 2.6 -0.8
v 0.4 2.2 -0.8
v 0.4 2.3 -0.8
v 0.5 2.2 -0.8
v 0.5 2.3 -0.8
v 0.5 2.5 -0.8
v 0.5 2.6 -0.8
v 0.6 2.4 -0.8
v 0.6 2.5 -0.8
v 0.7 2.2 -0.8
v 0.7 2.3 -0.8
v 0.7 2.4 -0.8
v 0.7 2.5 -0.8
v 0.8 2 -0.8
v 0.8 2.2 -0.8
v 0.8 2.5 -0.8
v 0.8 2.8 -0.8
v 0 2 0
v 0.8 2 0
v 0 2 -0.8
v 0.8 2 -0.8
v 0 2.8 0
v 0.8 2.8 0
v 0 2.8 -0.8
v 0.8 2.8 -0.8

# faces
f 3/1/1 2/1/1 1/1/1
f 4/1/1 2/1/1 3/1/1
f 5/1/1 2/1/1 4/1/1
f 6/1/1 2/1/1 5/1/1
f 7/2/1 4/2/1 3/2/1
f 8/3/1 5/3/1 4/3/1
f 8/2/1 4/2/1 7/2/1
f 9/2/1 6/2/1 5/2/1
f 9/3/1 5/3/1 8/3/1
f 10/2/1 6/2/1 9/2/1
f 11/3/1 8/3/1 7/3/1
f 11/3/1 9/3/1 8/3/1
f 11/3/1 10/3/1 9/3/1
f 12/3/1 10/3/1 11/3/1
f 13/1/2 14/1/2 15/1/2
f 15/1/2 14/1/2 16/1/2
f 15/2/2 16/2/2 17/2/2
f 17/2/2 16/2/2 18/2/2
f 17/3/2 18/3/2 19/3/2
f 19/3/2 18/3/2 20/3/2
f 25/1/3 22/1/3 21/1/3
f 25/2/3 23/2/3 22/2/3
f 26/2/3 23/2/3 25/2/3
f 27/3/3 24/3/3 23/3/3
f 27/2/3 23/2/3 26/2/3
f 28/1/3 26/1/3 25/1/3
f 28/3/3 27/3/3 26/3/3
f 29/3/3 24/3/3 27/3/3
f 29/3/3 27/3/3 28/3/3
f 30/1/3 28/1/3 25/1/3
f 30/1/3 25/1/3 21/1/3
f 31/2/3 29/2/3 28/2/3
f 31/1/3 28/1/3 30/1/3
f 32/3/3 24/3/3 29/3/3
f 32/2/3 29/2/3 31/2/3
f 33/3/3 24/3/3 32/3/3
f 34/1/3 30/1/3 21/1/3
f 35/2/3 31/2/3 30/2/3
f 35/1/3 30/1/3 34/1/3
f 35/2/3 32/2/3 31/2/3
f 35/2/3 33/2/3 32/2/3
f 36/1/3 34/1/3 21/1/3
f 36/2/3 35/2/3 34/2/3
f 37/2/3 33/2/3 35/2/3
f 37/2/3 35/2/3 36/2/3
f 38/2/3 33/2/3 37/2/3
f 39/3/3 24/3/3 33/3/3
f 39/2/3 33/2/3 38/2/3
f 40/2/3 38/2/3 37/2/3
f 41/3/3 39/3/3 38/3/3
f 41/2/3 38/2/3 40/2/3
f 42/1/3 36/1/3 21/1/3
f 42/1/3 37/1/3 36/1/3
f 43/2/3 40/2/3 37/2/3
f 43/1/3 37/1/3 42/1/3
f 44/3/3 41/3/3 40/3/3
f 44/2/3 40/2/3 43/2/3
f 45/3/3 39/3/3 41/3/3
f 45/3/3 41/3/3 44/3/3
f 46/1/3 42/1/3 21/1/3
f 47/2/3 44/2/3 43/2/3
f 47/1/3 42/1/3 46/1/3
f 47/2/3 43/2/3 42/2/3
f 47/2/3 45/2/3 44/2/3
f 48/3/3 39/3/3 45/3/3
f 48/2/3 45/2/3 47/2/3
f 49/3/3 24/3/3 39/3/3
f 49/3/3 39/3/3 48/3/3
f 50/1/4 51/1/4 54/1/4
f 51/2/4 52/2/4 54/2/4
f 54/2/4 52/2/4 55/2/4
f 52/3/4 53/3/4 56/3/4
f 55/2/4 52/2/4 56/2/4
f 54/1/4 55/1/4 57/1/4
f 55/3/4 56/3/4 57/3/4
f 56/3/4 53/3/4 58/3/4
f 57/3/4 56/3/4 58/3/4
f 54/1/4 57/1/4 59/1/4
f 50/1/4 54/1/4 59/1/4
f 57/2/4 58/2/4 60/2/4
f 59/1/4 57/1/4 60/1/4
f 58/3/4 53/3/4 61/3/4
f 60/2/4 58/2/4 61/2/4
f 61/3/4 53/3/4 62/3/4
f 50/1/4 59/1/4 63/1/4
f 59/2/4 60/2/4 64/2/4
f 63/1/4 59/1/4 64/1/4
f 60/2/4 61/2/4 64/2/4
f 61/2/4 62/2/4 64/2/4
f 50/1/4 63/1/4 65/1/4
f 63/2/4 64/2/4 65/2/4
f 64/2/4 62/2/4 66/2/4
f 65/2/4 64/2/4 66/2/4
f 66/2/4 62/2/4 67/2/4
f 62/3/4 53/3/4 68/3/4
f 67/2/4 62/2/4 68/2/4
f 66/2/4 67/2/4 69/2/4
f 67/3/4 68/3/4 70/3/4
f 69/2/4 67/2/4 70/2/4
f 50/1/4 65/1/4 71/1/4
f 65/1/4 66/1/4 71/1/4
f 66/2/4 69/2/4 72/2/4
f 71/1/4 66/1/4 72/1/4
f 69/3/4 70/3/4 73/3/4
f 72/2/4 69/2/4 73/2/4
f 70/3/4 68/3/4 74/3/4
f 73/3/4 70/3/4 74/3/4
f 50/1/4 71/1/4 75/1/4
f 72/2/4 73/2/4 76/2/4
f 75/1/4 71/1/4 76/1/4
f 71/2/4 72/2/4 76/2/4
f 73/2/4 74/2/4 76/2/4
f 74/3/4 68/3/4 77/3/4
f 76/2/4 74/2/4 77/2/4
f 68/3/4 53/3/4 78/3/4
f 77/3/4 68/3/4 78/3/4
f 81/1/5 80/1/5 79/1/5
f 82/1/5 80/1/5 81/1/5
f 83/3/6 84/3/6 85/3/6
f 85/3/6 84/3/6 86/3/6
