# MagicaVoxel @ Ephtracy

# group
o 

# material
mtllib grass04.mtl
usemtl palette

# normals
vn -1 0 0
vn 1 0 0
vn 0 0 1
vn 0 0 -1
vn 0 -1 0
vn 0 1 0

# texcoords
vt 0.00195313 0.5
vt 0.00585938 0.5
vt 0.0644531 0.5

# verts
v 0 2 0
v 0 2 -0.8
v 0 2.8 0
v 0 2.8 -0.8
v 0.8 2 0
v 0.8 2 -0.8
v 0.8 2.8 0
v 0.8 2.8 -0.8
v 0 2 0
v 0 2.8 0
v 0.2 2 0
v 0.2 2.1 0
v 0.2 2.3 0
v 0.2 2.4 0
v 0.3 2.1 0
v 0.3 2.3 0
v 0.3 2.4 0
v 0.3 2.5 0
v 0.3 2.7 0
v 0.3 2.8 0
v 0.4 2.1 0
v 0.4 2.2 0
v 0.4 2.5 0
v 0.4 2.6 0
v 0.4 2.7 0
v 0.5 2 0
v 0.5 2.1 0
v 0.5 2.2 0
v 0.5 2.3 0
v 0.5 2.5 0
v 0.5 2.6 0
v 0.5 2.7 0
v 0.5 2.8 0
v 0.6 2.3 0
v 0.6 2.5 0
v 0.8 2 0
v 0.8 2.8 0
v 0 2 -0.8
v 0 2.8 -0.8
v 0.2 2 -0.8
v 0.2 2.1 -0.8
v 0.2 2.3 -0.8
v 0.2 2.4 -0.8
v 0.3 2.1 -0.8
v 0.3 2.3 -0.8
v 0.3 2.4 -0.8
v 0.3 2.5 -0.8
v 0.3 2.7 -0.8
v 0.3 2.8 -0.8
v 0.4 2.1 -0.8
v 0.4 2.2 -0.8
v 0.4 2.5 -0.8
v 0.4 2.6 -0.8
v 0.4 2.7 -0.8
v 0.5 2 -0.8
v 0.5 2.1 -0.8
v 0.5 2.2 -0.8
v 0.5 2.3 -0.8
v 0.5 2.5 -0.8
v 0.5 2.6 -0.8
v 0.5 2.7 -0.8
v 0.5 2.8 -0.8
v 0.6 2.3 -0.8
v 0.6 2.5 -0.8
v 0.8 2 -0.8
v 0.8 2.8 -0.8
v 0 2 0
v 0.2 2 0
v 0.5 2 0
v 0.8 2 0
v 0 2 -0.8
v 0.2 2 -0.8
v 0.5 2 -0.8
v 0.8 2 -0.8
v 0 2.8 0
v 0.3 2.8 0
v 0.5 2.8 0
v 0.8 2.8 0
v 0 2.8 -0.8
v 0.3 2.8 -0.8
v 0.5 2.8 -0.8
v 0.8 2.8 -0.8

# faces
f 3/1/1 2/1/1 1/1/1
f 4/1/1 2/1/1 3/1/1
f 5/3/2 6/3/2 7/3/2
f 7/3/2 6/3/2 8/3/2
f 11/1/3 10/1/3 9/1/3
f 12/1/3 10/1/3 11/1/3
f 13/1/3 10/1/3 12/1/3
f 14/1/3 10/1/3 13/1/3
f 15/2/3 12/2/3 11/2/3
f 15/1/3 13/1/3 12/1/3
f 16/2/3 14/2/3 13/2/3
f 16/1/3 13/1/3 15/1/3
f 17/1/3 10/1/3 14/1/3
f 17/2/3 14/2/3 16/2/3
f 18/1/3 10/1/3 17/1/3
f 19/1/3 10/1/3 18/1/3
f 20/1/3 10/1/3 19/1/3
f 21/2/3 16/2/3 15/2/3
f 21/2/3 15/2/3 11/2/3
f 21/2/3 17/2/3 16/2/3
f 21/2/3 18/2/3 17/2/3
f 22/2/3 18/2/3 21/2/3
f 23/1/3 19/1/3 18/1/3
f 23/2/3 18/2/3 22/2/3
f 24/1/3 19/1/3 23/1/3
f 25/2/3 20/2/3 19/2/3
f 25/1/3 19/1/3 24/1/3
f 26/2/3 21/2/3 11/2/3
f 27/3/3 22/3/3 21/3/3
f 27/2/3 21/2/3 26/2/3
f 28/2/3 24/2/3 23/2/3
f 28/3/3 22/3/3 27/3/3
f 28/2/3 23/2/3 22/2/3
f 29/2/3 24/2/3 28/2/3
f 30/2/3 24/2/3 29/2/3
f 31/3/3 25/3/3 24/3/3
f 31/2/3 24/2/3 30/2/3
f 32/2/3 20/2/3 25/2/3
f 32/3/3 25/3/3 31/3/3
f 33/2/3 20/2/3 32/2/3
f 34/3/3 27/3/3 26/3/3
f 34/2/3 30/2/3 29/2/3
f 34/3/3 28/3/3 27/3/3
f 34/3/3 29/3/3 28/3/3
f 35/3/3 31/3/3 30/3/3
f 35/2/3 30/2/3 34/2/3
f 35/3/3 33/3/3 32/3/3
f 35/3/3 32/3/3 31/3/3
f 36/3/3 34/3/3 26/3/3
f 36/3/3 35/3/3 34/3/3
f 37/3/3 33/3/3 35/3/3
f 37/3/3 35/3/3 36/3/3
f 38/1/4 39/1/4 40/1/4
f 40/1/4 39/1/4 41/1/4
f 41/1/4 39/1/4 42/1/4
f 42/1/4 39/1/4 43/1/4
f 40/2/4 41/2/4 44/2/4
f 41/1/4 42/1/4 44/1/4
f 42/2/4 43/2/4 45/2/4
f 44/1/4 42/1/4 45/1/4
f 43/1/4 39/1/4 46/1/4
f 45/2/4 43/2/4 46/2/4
f 46/1/4 39/1/4 47/1/4
f 47/1/4 39/1/4 48/1/4
f 48/1/4 39/1/4 49/1/4
f 44/2/4 45/2/4 50/2/4
f 40/2/4 44/2/4 50/2/4
f 45/2/4 46/2/4 50/2/4
f 46/2/4 47/2/4 50/2/4
f 50/2/4 47/2/4 51/2/4
f 47/1/4 48/1/4 52/1/4
f 51/2/4 47/2/4 52/2/4
f 52/1/4 48/1/4 53/1/4
f 48/2/4 49/2/4 54/2/4
f 53/1/4 48/1/4 54/1/4
f 40/2/4 50/2/4 55/2/4
f 50/3/4 51/3/4 56/3/4
f 55/2/4 50/2/4 56/2/4
f 52/2/4 53/2/4 57/2/4
f 56/3/4 51/3/4 57/3/4
f 51/2/4 52/2/4 57/2/4
f 57/2/4 53/2/4 58/2/4
f 58/2/4 53/2/4 59/2/4
f 53/3/4 54/3/4 60/3/4
f 59/2/4 53/2/4 60/2/4
f 54/2/4 49/2/4 61/2/4
f 60/3/4 54/3/4 61/3/4
f 61/2/4 49/2/4 62/2/4
f 55/3/4 56/3/4 63/3/4
f 58/2/4 59/2/4 63/2/4
f 56/3/4 57/3/4 63/3/4
f 57/3/4 58/3/4 63/3/4
f 59/3/4 60/3/4 64/3/4
f 63/2/4 59/2/4 64/2/4
f 61/3/4 62/3/4 64/3/4
f 60/3/4 61/3/4 64/3/4
f 55/3/4 63/3/4 65/3/4
f 63/3/4 64/3/4 65/3/4
f 64/3/4 62/3/4 66/3/4
f 65/3/4 64/3/4 66/3/4
f 71/1/5 68/1/5 67/1/5
f 72/2/5 69/2/5 68/2/5
f 72/1/5 68/1/5 71/1/5
f 73/3/5 70/3/5 69/3/5
f 73/2/5 69/2/5 72/2/5
f 74/3/5 70/3/5 73/3/5
f 75/1/6 76/1/6 79/1/6
f 76/2/6 77/2/6 80/2/6
f 79/1/6 76/1/6 80/1/6
f 77/3/6 78/3/6 81/3/6
f 80/2/6 77/2/6 81/2/6
f 81/3/6 78/3/6 82/3/6
